<?xml version="1.0" encoding="utf-8"?>
<!-- Generator: Adobe Illustrator 24.2.3, SVG Export Plug-In . SVG Version: 6.00 Build 0)  -->
<svg version="1.1" id="Layer_1" xmlns="http://www.w3.org/2000/svg" xmlns:xlink="http://www.w3.org/1999/xlink" x="0px" y="0px"
	 viewBox="0 0 408.2 462.6" style="enable-background:new 0 0 408.2 462.6;" xml:space="preserve">
<style type="text/css">
	.st0{fill:#86CC74;}
	.st1{fill:none;stroke:#C0C0C0;stroke-width:5;stroke-miterlimit:10;}
</style>
<path class="st0" d="M368.1,210.1H48.6l71.3-137.7l40.4,32.9l38.7-90l45.2,101.1l39.3-39.3L368.1,210.1z M56.8,205.1H359L282.8,85
	l-40,40l-43.6-97.3l-36.8,85.7l-40.8-33.2L56.8,205.1z"/>
<path class="st1" d="M196.4,212.2c-2.4,25.1-31.5,63.6-59.7,75.9"/>
<path class="st1" d="M104,310.4c-8.2,1.6-58.1,60.4-57.6,71.4"/>
<path class="st1" d="M253.5,206.5c-39.1,152.1-117.4,84.6-179.6,237.1"/>
<path class="st1" d="M298.2,230.8c-4.2,52.1-53,96.1-52.4,96.9"/>
<path class="st1" d="M206.7,355.5c-27.3,12.4-54.1,46.4-63.1,77.7"/>
</svg>
